<?xml version="1.0" encoding="UTF-8"?>
<svg id="Layer_1" data-name="Layer 1" xmlns="http://www.w3.org/2000/svg" viewBox="0 0 257.23 34.94">
  <defs>
    <style>
      .cls-1 {
        fill: #34a9e0;
        stroke-width: 0px;
      }
    </style>
  </defs>
  <path class="cls-1" d="M6.38,34.34H0V.62h6.55l15.98,22.8V.62h6.38v33.72h-6.05L6.38,10.87v23.47Z"/>
  <path class="cls-1" d="M61.37,34.34h-24.43V.62h24.07v5.95h-17.57v7.82h14.04v5.62h-14.04v8.38h17.93v5.95Z"/>
  <path class="cls-1" d="M70.24,33.32c-2.36-1.03-4.4-2.53-6.13-4.5l4.18-4.22c1.28,1.38,2.73,2.42,4.34,3.14,1.62.72,3.29,1.08,5.02,1.08s3.24-.37,4.28-1.1c1.05-.74,1.57-1.75,1.57-3.05,0-.86-.25-1.58-.76-2.16s-1.27-1.08-2.3-1.52c-1.03-.44-2.47-.92-4.31-1.43-1.86-.51-3.51-1.13-4.96-1.85-1.45-.72-2.68-1.74-3.68-3.07-1.01-1.33-1.51-3.01-1.51-5.04,0-1.76.44-3.36,1.32-4.81.88-1.45,2.19-2.6,3.92-3.44,1.74-.85,3.84-1.27,6.3-1.27s4.53.4,6.54,1.19,3.8,1.92,5.36,3.37l-3.72,4.46c-.99-.9-2.2-1.64-3.62-2.22-1.42-.58-2.86-.88-4.3-.88-1.02,0-1.94.16-2.75.47s-1.44.76-1.9,1.33-.68,1.25-.68,2.02.25,1.38.74,1.87c.5.5,1.15.91,1.97,1.24.82.33,2.01.73,3.58,1.21l.53.17c2.34.75,4.27,1.54,5.8,2.36,1.53.82,2.74,1.87,3.65,3.14.9,1.27,1.36,2.84,1.36,4.72,0,2.1-.52,3.92-1.57,5.48-1.05,1.56-2.5,2.76-4.37,3.6-1.86.84-3.99,1.26-6.37,1.26-2.66,0-5.16-.52-7.52-1.55Z"/>
  <path class="cls-1" d="M108.72,34.34h-6.5V6.7h-9.89V.62h26.3v6.07h-9.91v27.65Z"/>
  <path class="cls-1" d="M143.02,18.94h6.17v12.24c-1.54,1.2-3.31,2.13-5.32,2.78-2.01.66-4.07.98-6.18.98-3.22,0-6.16-.78-8.82-2.34s-4.77-3.68-6.31-6.36c-1.54-2.68-2.32-5.62-2.32-8.82s.77-6.13,2.32-8.78c1.54-2.66,3.65-4.76,6.31-6.31,2.66-1.55,5.6-2.33,8.82-2.33,2.14,0,4.19.36,6.14,1.09s3.69,1.75,5.21,3.06l-3.82,4.94c-1.04-.86-2.21-1.56-3.52-2.08-1.3-.52-2.64-.78-4.02-.78-1.94,0-3.74.5-5.4,1.49-1.66.99-2.99,2.34-3.98,4.06-.99,1.71-1.49,3.6-1.49,5.66s.5,3.97,1.49,5.72c.99,1.75,2.32,3.14,4,4.15,1.67,1.02,3.47,1.52,5.39,1.52s3.66-.37,5.33-1.1v-8.81Z"/>
  <path class="cls-1" d="M182.01,34.34h-7.34l-5.28-11.38c-.7.03-1.24.05-1.61.05h-5.64v11.33h-6.5V.62h13.92c2.29,0,4.31.47,6.06,1.4s3.11,2.25,4.08,3.94c.97,1.69,1.45,3.64,1.45,5.84s-.49,4.13-1.46,5.72c-.98,1.59-2.33,2.84-4.06,3.76l6.38,13.06ZM162.14,17.28h6.84c1.09,0,2.06-.23,2.9-.7s1.5-1.11,1.97-1.93.7-1.76.7-2.82-.24-2.03-.72-2.83c-.48-.8-1.14-1.41-1.98-1.84-.84-.42-1.79-.64-2.84-.64h-6.86v10.75Z"/>
  <path class="cls-1" d="M215.85,34.34h-6.72l-2.38-6.48h-14.06l-2.35,6.48h-6.74L196.87.58h5.76l13.22,33.77ZM199.41,9.46l-4.68,12.86h10.01l-4.7-12.86-.31-1.15-.31,1.15Z"/>
  <path class="cls-1" d="M224.71,34.34h-6.55L222.26.62h7.34l8.09,24.65L245.76.62h7.34l4.13,33.74h-6.58l-2.45-23.33-7.66,23.3h-5.64l-7.66-23.3-2.54,23.3Z"/>
</svg>